<?xml version="1.0" encoding="utf-8"?>
<svg viewBox="0 0 197 276" xmlns="http://www.w3.org/2000/svg">
  <defs>
    <linearGradient x1="-2.91199922%" y1="1913.75172%" x2="102.930973%" y2="1913.75172%" id="linearGradient-1">
      <stop stop-color="#F1AAC2" offset="0"/>
      <stop stop-color="#E5638F" offset="1"/>
    </linearGradient>
    <linearGradient x1="102.911999%" y1="1911.46876%" x2="-2.9309731%" y2="1911.46876%" id="linearGradient-2">
      <stop stop-color="#F1AAC2" offset="0"/>
      <stop stop-color="#E5638F" offset="1"/>
    </linearGradient>
    <linearGradient x1="27.3602544%" y1="18.7873013%" x2="90.1838279%" y2="90.3397894%" id="linearGradient-3">
      <stop stop-color="#FFCEAE" offset="0"/>
      <stop stop-color="#FFB280" offset="1"/>
    </linearGradient>
    <linearGradient x1="-8.6108091%" y1="1770.32632%" x2="108.55641%" y2="1770.32632%" id="linearGradient-4">
      <stop stop-color="#8A8A8A" offset="0"/>
      <stop stop-color="#F1F1F1" offset="0.2857"/>
      <stop stop-color="#FFFFFF" offset="1"/>
    </linearGradient>
    <linearGradient x1="-8.63327515%" y1="1772.18319%" x2="108.533944%" y2="1772.18319%" id="linearGradient-5">
      <stop stop-color="#8A8A8A" offset="0"/>
      <stop stop-color="#F1F1F1" offset="0.2857"/>
      <stop stop-color="#FFFFFF" offset="1"/>
    </linearGradient>
  </defs>
  <g id="mole" transform="matrix(1, 0, 0, 1, 3.32344, 2.01667)" stroke="none" stroke-width="1" fill="none" fill-rule="evenodd">
    <path d="M94.7684787,0.910105958 C94.5239962,0.910105958 94.1940256,0.947852969 93.9289099,0.95201723 L93.9289099,0.993928502 C79.3030178,1.16431394 43.7467171,4.25959571 30.6674046,36.1298807 C24.1485495,27.4651954 30.6620314,36.1325673 9.63620742,16.1901229 C9.63620742,16.1901229 -16.7438353,42.0376103 19.2492696,60.3934176 C31.7512543,176.386302 6.28102203,220.95906 80.2859177,219.36576 C84.5021111,219.274953 89.1307409,219.336208 93.9289099,219.449717 L94.0547781,219.449717 L96.2376568,219.491629 L96.2376568,219.407672 C101.040098,219.293893 105.661017,219.232813 109.880649,219.323715 C183.885545,220.917015 158.415312,176.344256 170.917297,60.351372 C206.910402,41.9955647 180.530359,16.1480773 180.530359,16.1480773 C159.504844,36.0907098 166.018017,27.4231498 159.499162,36.0878351 C145.978317,3.14166626 108.371615,0.909904462 94.7684115,0.909904462 L94.7684787,0.910105958 Z" id="Shape" stroke="#000000" stroke-width="5.81003068" fill="#333333"/>
    <path d="M166.443818,194.154781 C166.443818,236.683432 135.246002,271.159715 96.7615554,271.159715 C58.2771084,271.159715 27.0792931,236.683432 27.0792931,194.154781 C27.0792931,151.62613 58.2771084,117.149835 96.7615554,117.149835 C135.246002,117.149835 166.443818,151.62613 166.443818,194.154781 L166.443818,194.154781 Z" id="Shape" stroke="#000000" stroke-width="2.70512659" fill="#93939F"/>
    <path d="M95.720778,118.043863 C133.148484,119.3746 163.138149,153.305831 163.138149,194.990339 C163.138149,234.332088 136.441568,266.748468 101.975565,271.391095 C126.023595,264.677111 144.205873,233.2727 144.205873,195.536059 C144.205873,154.58258 122.802176,121.078159 95.720778,118.505626 L95.720778,118.043863 L95.720778,118.043863 Z" id="Shape" fill="#7F7F8D"/>
    <path d="M95.5398476,116.904293 C58.1121414,118.23503 28.1224769,152.166261 28.1224769,193.850769 C28.1224769,233.192517 54.8190572,265.608898 89.2850604,270.251525 C65.2370307,263.537541 47.0547523,232.133129 47.0547523,194.396489 C47.0547523,153.44301 68.4584493,119.938589 95.5398476,117.366056 L95.5398476,116.904293 L95.5398476,116.904293 Z" id="Shape" fill="#C1C1C8"/>
    <g id="Group" transform="translate(73.930691, 58.411444)"/>
    <g id="Group" transform="translate(97.170814, 58.411444)"/>
    <path d="M7.26303537,25.5937093 C7.26303537,25.5937093 -6.38209268,41.4090487 17.3373499,56.4045123 C21.1453382,52.7151651 21.6897952,52.0625716 26.1691699,48.5106988 L26.1691699,45.6561651 C20.7427079,42.6965039 23.2475378,38.825568 14.397919,27.8241815 L7.26303537,25.5937093 L7.26303537,25.5937093 Z" id="Shape" stroke="#000000" stroke-width="1.34331" fill="url(#linearGradient-1)"/>
    <path d="M184.264197,26.2971067 C184.264197,26.2971067 197.909325,42.1124461 174.189882,57.1079097 C170.381894,53.4185625 169.837437,52.7659691 165.358062,49.2140962 L165.358062,46.3595625 C170.784524,43.3999013 168.279695,39.5289654 177.129313,28.5275789 L184.264197,26.2971067 L184.264197,26.2971067 Z" id="Shape" stroke="#000000" stroke-width="1.34331" fill="url(#linearGradient-2)"/>
    <path d="M86.7076649,120.297145 C124.135371,121.627882 154.125036,155.559113 154.125036,197.243621 C154.125036,236.585369 127.428455,269.00175 92.9624521,273.644377 C117.010482,266.930393 135.19276,235.525981 135.19276,197.789341 C135.19276,156.835862 113.789063,123.33144 86.7076649,120.758908 L86.7076649,120.297145 L86.7076649,120.297145 Z" id="Shape" fill="#7F7F8D"/>
    <path d="M95.0527365,91.068694 C83.50739,91.068694 73.5501718,96.7597745 68.9841268,104.958587 C58.4525361,108.211304 51.6890106,113.313585 51.6890106,119.038007 C51.6890106,120.61473 52.2350795,122.158046 53.2002343,123.613818 C52.4751962,125.302519 52.1087949,127.061799 52.1087949,128.866536 C52.1087949,141.909794 72.1077121,152.476646 96.7738524,152.476646 C121.439993,152.476646 141.43891,141.909794 141.43891,128.866536 C141.43891,126.790665 140.920849,124.773779 139.969665,122.855694 C140.639184,121.629789 141.019126,120.343906 141.019126,119.038007 C141.019126,112.770472 132.89832,107.260281 120.617605,104.092165 C115.850198,96.3580711 106.190294,91.068694 95.0527365,91.068694 L95.0527365,91.068694 Z" id="Shape" stroke="#000000" stroke-width="2.68662" fill="url(#linearGradient-3)"/>
    <path d="M111.403264,98.953252 C111.403264,107.664402 104.341483,114.726183 95.6303329,114.726183 C86.9191825,114.726183 79.8574018,107.664402 79.8574018,98.953252 C79.8574018,90.2421016 86.9191825,83.1803075 95.6303329,83.1803075 C104.341483,83.1803075 111.403264,90.2420882 111.403264,98.953252 L111.403264,98.953252 Z" id="Shape" fill="#000000"/>
    <path d="M 62.021 -0.339 C 38.794 -0.339 19.931 21.469 19.931 48.345 C 19.931 75.22 38.794 97.026 62.021 97.026 C 75.67 97.026 87.781 89.488 95.471 77.822 C 103.158 89.495 115.297 97.026 128.955 97.026 C 152.175 97.026 171.04 75.216 171.04 48.345 C 171.04 21.475 152.175 -0.339 128.955 -0.339 C 115.3 -0.339 103.158 7.197 95.471 18.869 C 87.781 7.206 75.668 -0.339 62.021 -0.339 Z" id="Shape" stroke="#000000" stroke-width="5.48446607" fill="#FFFFFF" style=""/>
    <path d="M 149.891 4.367 C 150.405 7.457 150.65 10.665 150.65 13.927 C 150.65 41.679 131.202 64.177 107.221 64.177 C 93.114 64.177 80.533 56.413 72.593 44.357 C 64.652 56.406 52.181 64.177 38.084 64.177 C 31.089 64.177 24.469 62.272 18.613 58.873 C 22.476 82.061 40.118 99.62 61.284 99.62 C 75.382 99.62 87.911 91.79 95.852 79.742 C 103.792 91.798 116.315 99.62 130.421 99.62 C 154.402 99.62 173.909 77.064 173.909 49.312 C 173.909 29.646 164.122 12.63 149.891 4.367 Z" id="Shape" opacity="0.3374" fill="#A5A5A5" style=""/>
    <path d="M76.4845116,132.95005 L94.3625841,132.95005 L94.3625841,160.192821 L76.4845116,160.192821 L76.4845116,132.95005 Z" id="Shape" stroke="#000000" stroke-width="3.04518974" fill="url(#linearGradient-4)"/>
    <path d="M94.5812347,132.444187 L112.459307,132.444187 L112.459307,159.686957 L94.5812347,159.686957 L94.5812347,132.444187 Z" id="Shape" stroke="#000000" stroke-width="3.04518974" fill="url(#linearGradient-5)"/>
    <path d="M59.5778941,123.739283 C85.550766,138.236405 109.839866,135.895782 132.809379,120.359367" id="Shape" stroke="#000000" stroke-width="5.37324"/>
  </g>
  <path style="fill: rgb(216, 216, 216); stroke: rgb(0, 0, 0);" d="M 46.856 28.884 L 80.233 64.186"/>
  <path style="fill: rgb(216, 216, 216); stroke: rgb(0, 0, 0);" d="M 77.986 31.13 L 52.633 65.149"/>
  <path style="fill: rgb(216, 216, 216); stroke: rgb(0, 0, 0);" d="M 122.595 33.377 L 145.06 68.037"/>
  <path style="fill: rgb(216, 216, 216); stroke: rgb(0, 0, 0);" d="M 147.307 34.66 L 126.447 66.433"/>
</svg>